<svg width="174" height="35" viewBox="0 0 174 35" fill="none" xmlns="http://www.w3.org/2000/svg">
<path d="M12.464 10.188C11.576 10.452 10.868 10.836 10.34 11.34C9.812 11.82 9.344 12.516 8.936 13.428C12.992 14.028 15.848 14.892 17.504 16.02C19.16 17.148 19.988 18.756 19.988 20.844C19.988 22.164 19.616 23.316 18.872 24.3C18.128 25.26 17.192 25.992 16.064 26.496C13.856 27.432 11.684 27.9 9.548 27.9C3.476 27.9 0.44 26.592 0.44 23.976C0.44 22.656 1.028 21.336 2.204 20.016C2.804 20.856 3.704 21.576 4.904 22.176C6.128 22.776 7.316 23.076 8.468 23.076C10.46 23.076 11.66 22.2 12.068 20.448C8.42 20.016 5.78 19.2 4.148 18C2.516 16.8 1.7 15.108 1.7 12.924C1.7 11.196 2.264 9.744 3.392 8.568C4.544 7.392 5.96 6.576 7.64 6.12C9.344 5.64 11.252 5.4 13.364 5.4C15.5 5.4 17.252 5.808 18.62 6.624C20.012 7.416 20.708 8.388 20.708 9.54C20.708 10.692 20.3 11.58 19.484 12.204C18.692 12.828 17.816 13.14 16.856 13.14C15.92 13.14 15.056 12.888 14.264 12.384C13.496 11.88 12.896 11.148 12.464 10.188ZM24.9048 14.004C24.7368 13.332 24.6528 12.708 24.6528 12.132C24.6528 10.956 25.0008 10.068 25.6968 9.468C26.3928 8.868 27.2928 8.568 28.3968 8.568C28.3968 7.32 28.0728 5.964 27.4248 4.5C28.6008 3.636 29.6688 2.988 30.6288 2.556C31.6128 2.1 32.6448 1.872 33.7248 1.872C34.8048 1.872 35.5488 2.076 35.9568 2.484C36.3888 2.868 36.6048 3.468 36.6048 4.284C36.6048 5.1 36.4368 6.372 36.1008 8.1C37.0608 7.956 38.0328 7.752 39.0168 7.488C39.1848 7.992 39.2688 8.64 39.2688 9.432C39.2688 10.224 38.9568 10.968 38.3328 11.664C37.7328 12.336 36.8448 12.672 35.6688 12.672H35.1288C34.2648 16.584 33.8328 19.596 33.8328 21.708C33.8328 23.82 34.2048 25.296 34.9488 26.136C33.6048 27.312 32.1768 27.9 30.6648 27.9C29.1528 27.9 28.0608 27.456 27.3888 26.568C26.7408 25.656 26.4168 24.252 26.4168 22.356C26.4168 21.204 26.8368 18.18 27.6768 13.284C26.7168 13.452 25.7928 13.692 24.9048 14.004ZM59.3419 8.136C60.6859 8.136 61.8379 8.676 62.7979 9.756C63.7819 10.836 64.2739 12.408 64.2739 14.472C64.2739 16.512 63.9139 18.408 63.1939 20.16C62.4739 21.888 61.5259 23.304 60.3499 24.408C59.1739 25.512 57.8419 26.376 56.3539 27C54.8659 27.6 53.3419 27.9 51.7819 27.9C48.6379 27.9 46.1539 27.036 44.3299 25.308C42.5059 23.58 41.5939 21.288 41.5939 18.432C41.5939 14.568 42.8299 11.436 45.3019 9.036C47.7979 6.612 50.9659 5.4 54.8059 5.4C55.6699 5.4 56.5339 5.496 57.3979 5.688C57.6619 6.48 57.8059 7.38 57.8299 8.388C58.3339 8.22 58.8379 8.136 59.3419 8.136ZM54.9139 13.14C54.9139 12.468 55.0699 11.712 55.3819 10.872C55.7179 10.032 56.2459 9.36 56.9659 8.856C53.7979 9.528 51.6139 10.812 50.4139 12.708C49.3819 14.34 48.8659 16.02 48.8659 17.748C48.8659 19.476 49.2139 20.868 49.9099 21.924C50.6299 22.956 51.5419 23.472 52.6459 23.472C55.0939 23.472 56.8219 21.876 57.8299 18.684C55.8859 17.484 54.9139 15.636 54.9139 13.14ZM72.0443 34.164C70.5563 34.164 69.5123 33.792 68.9123 33.048C68.3363 32.328 68.0483 31.272 68.0483 29.88C68.0483 28.512 68.3363 25.74 68.9123 21.564C69.5123 17.388 70.0883 13.824 70.6403 10.872L68.6243 7.992C70.1123 7.128 71.3963 6.48 72.4763 6.048C73.5563 5.592 74.6243 5.364 75.6803 5.364C77.4083 5.364 78.2723 6.504 78.2723 8.784C78.2723 9.096 78.2243 9.732 78.1283 10.692L78.4883 10.872C79.1843 9.144 80.1923 7.8 81.5123 6.84C82.8323 5.856 84.3803 5.364 86.1563 5.364C87.9563 5.364 89.3843 6.18 90.4403 7.812C91.4963 9.42 92.0243 11.424 92.0243 13.824C92.0243 17.04 90.8963 19.968 88.6403 22.608C87.5363 23.904 86.0603 24.96 84.2123 25.776C82.3643 26.568 80.3003 26.964 78.0203 26.964C77.3243 26.964 76.4123 26.904 75.2843 26.784C75.2123 27.624 75.1763 28.404 75.1763 29.124C75.1763 30.66 75.5483 31.752 76.2923 32.4C74.9483 33.576 73.5323 34.164 72.0443 34.164ZM76.7603 19.26L75.9323 23.436C78.8363 23.364 81.1523 22.416 82.8803 20.592C84.6323 18.744 85.5083 16.728 85.5083 14.544C85.5083 13.416 85.2803 12.516 84.8243 11.844C84.3923 11.148 83.7563 10.8 82.9163 10.8C79.9403 10.8 77.8883 13.62 76.7603 19.26ZM116.851 6.192L116.563 14.76C116.563 17.712 116.803 20.196 117.283 22.212C117.787 24.228 118.711 25.62 120.055 26.388C118.399 27.42 116.719 27.936 115.015 27.936C112.015 27.936 110.167 25.512 109.471 20.664H102.127C101.671 22.224 101.443 23.424 101.443 24.264C101.443 25.08 101.539 25.74 101.731 26.244C99.9548 27.372 98.3708 27.936 96.9788 27.936C94.8428 27.936 93.7748 26.64 93.7748 24.048C93.7748 22.752 94.1708 21.12 94.9628 19.152C95.7788 17.184 96.8468 14.928 98.1668 12.384C99.5108 9.84 100.363 8.16 100.723 7.344C100.459 6.048 100.159 4.776 99.8228 3.528C101.071 2.664 102.271 2.016 103.423 1.584C104.599 1.128 105.859 0.899999 107.203 0.899999C108.571 0.899999 109.519 1.2 110.047 1.8C111.415 1.2 112.543 0.899999 113.431 0.899999C114.319 0.899999 114.979 1.044 115.411 1.332C115.843 1.62 116.155 2.04 116.347 2.592C116.683 3.552 116.851 4.752 116.851 6.192ZM109.615 7.02H108.463C106.303 11.196 104.695 14.484 103.639 16.884H109.219C109.219 14.268 109.351 10.98 109.615 7.02ZM122.737 21.132C122.737 19.764 123.061 17.352 123.709 13.896C124.357 10.44 124.753 8.256 124.897 7.344L122.989 3.492C126.037 1.764 128.629 0.899999 130.765 0.899999C131.821 0.899999 132.613 1.26 133.141 1.98C135.133 1.284 136.969 0.935999 138.649 0.935999C141.769 0.935999 144.193 1.956 145.921 3.996C147.649 6.012 148.513 8.532 148.513 11.556C148.513 15.54 147.049 19.2 144.121 22.536C142.705 24.144 140.833 25.44 138.505 26.424C136.201 27.408 133.729 27.9 131.089 27.9C128.449 27.9 126.397 27.324 124.933 26.172C123.469 24.996 122.737 23.316 122.737 21.132ZM130.369 22.5C130.873 22.596 131.437 22.644 132.061 22.644C134.677 22.644 136.717 21.708 138.181 19.836C139.645 17.94 140.377 15.612 140.377 12.852C140.377 10.62 139.873 8.844 138.865 7.524C137.857 6.204 136.405 5.544 134.509 5.544C134.221 5.544 133.741 5.592 133.069 5.688C132.901 6.912 132.457 9.648 131.737 13.896C131.041 18.12 130.585 20.988 130.369 22.5ZM163.791 0.899999C166.959 0.899999 169.335 1.272 170.919 2.016C172.503 2.736 173.295 3.9 173.295 5.508C173.295 7.092 172.803 8.304 171.819 9.144C170.859 9.96 169.755 10.368 168.507 10.368C167.259 10.368 166.131 10.056 165.123 9.432C164.139 8.784 163.455 7.932 163.071 6.876C162.183 6.876 161.331 7.176 160.515 7.776C159.723 8.352 159.219 9.108 159.003 10.044C163.755 11.196 167.163 12.54 169.227 14.076C171.291 15.612 172.323 17.58 172.323 19.98C172.323 22.38 171.231 24.3 169.047 25.74C166.887 27.18 163.959 27.9 160.263 27.9C156.591 27.9 153.987 27.396 152.451 26.388C150.915 25.38 150.147 24.048 150.147 22.392C150.147 20.736 150.663 19.212 151.695 17.82C152.199 18.9 153.159 19.872 154.575 20.736C156.015 21.6 157.431 22.032 158.823 22.032C161.391 22.032 163.023 21.216 163.719 19.584C159.735 19.056 156.699 17.952 154.611 16.272C152.523 14.568 151.479 12.516 151.479 10.116C151.479 8.508 151.911 7.08 152.775 5.832C153.639 4.56 154.743 3.588 156.087 2.916C158.727 1.572 161.295 0.899999 163.791 0.899999Z" fill="#3080E3"/>
</svg>
